<svg version="1.1" id="Layer_1" xmlns="http://www.w3.org/2000/svg" xmlns:xlink="http://www.w3.org/1999/xlink" x="0px" y="0px"
	 width="100%" viewBox="0 0 1254 1254" enable-background="new 0 0 1254 1254" xml:space="preserve">
<path fill="#000000" opacity="1.000000" stroke="none" 
	d="
M603.000000,1255.000000 
	C402.000000,1255.000000 201.500000,1255.000000 1.000000,1255.000000 
	C1.000000,837.000000 1.000000,419.000000 1.000000,1.000000 
	C419.000000,1.000000 837.000000,1.000000 1255.000000,1.000000 
	C1255.000000,419.000000 1255.000000,837.000000 1255.000000,1255.000000 
	C1037.833374,1255.000000 820.666687,1255.000000 603.000000,1255.000000 
M306.053650,481.542999 
	C301.281372,479.370728 297.926788,480.331909 295.509186,485.289734 
	C293.180817,490.064575 291.597778,495.197327 289.413544,500.049622 
	C287.307159,504.728973 288.162842,508.881653 290.129669,513.440735 
	C295.305817,525.438843 305.429108,532.441406 315.358704,539.793823 
	C318.112732,541.833069 320.919861,544.213745 322.721130,547.059082 
	C333.852661,564.642700 344.668671,582.425598 355.656647,600.100586 
	C370.508392,623.990845 387.700409,645.910217 408.998108,664.516785 
	C417.191986,671.675232 425.756195,673.236755 435.133881,668.094238 
	C445.626190,662.340576 456.080963,656.437927 466.072144,649.870056 
	C480.617340,640.308472 493.692719,629.073364 503.772919,614.556702 
	C508.038147,608.414246 509.393341,602.066711 507.511810,595.196167 
	C505.500305,587.850830 502.713745,580.717834 500.734070,573.174316 
	C500.881226,573.056152 501.028381,572.937988 501.824097,573.012573 
	C505.434723,577.563110 508.876984,582.261169 512.699524,586.626160 
	C517.268799,591.843933 521.487793,597.748840 527.062744,601.623291 
	C537.446472,608.839539 544.857117,618.081909 547.775879,630.028015 
	C551.276672,644.356384 554.265564,658.968140 555.581360,673.627319 
	C556.895935,688.272339 555.869812,703.127502 555.869812,718.102173 
	C557.315674,718.102173 558.620422,718.197815 559.907654,718.088013 
	C585.471008,715.906738 610.181335,710.165955 633.895386,700.291382 
	C661.489807,688.801147 682.959351,670.462158 696.535461,643.575623 
	C700.047791,636.619568 702.110168,628.927673 705.663269,621.996521 
	C714.626099,604.512390 729.596863,591.615295 741.872009,576.827026 
	C742.034607,577.001465 742.197205,577.175903 742.277466,578.058228 
	C739.446533,585.162170 736.442688,592.203308 733.831238,599.387024 
	C730.981018,607.227356 732.243469,614.478088 736.591858,621.763489 
	C751.917969,647.441162 774.083130,666.117981 798.290833,682.669800 
	C805.439087,687.557373 813.475769,686.610779 820.490479,682.038940 
	C832.046875,674.507080 844.198547,667.478699 854.367310,658.315918 
	C873.766968,640.835266 892.211914,622.259888 910.472412,603.571533 
	C915.990906,597.923706 921.594727,595.008484 929.252441,595.591309 
	C943.373840,596.666016 956.554932,593.512451 969.166321,587.165344 
	C979.039734,582.196167 989.154968,577.707581 999.162720,573.005432 
	C999.013977,572.598572 998.865173,572.191711 998.716431,571.784851 
	C989.309082,571.678467 979.677307,569.470459 971.225403,576.486572 
	C968.470276,578.773743 964.935486,580.256897 961.561462,581.625183 
	C958.238281,582.972900 954.666931,583.708862 951.204529,584.713257 
	C951.106628,584.394958 951.008789,584.076721 950.910889,583.758423 
	C957.035583,580.128906 963.160217,576.499329 969.284851,572.869812 
	C969.095703,572.257812 968.906494,571.645813 968.717346,571.033752 
	C962.513916,571.614075 956.317810,572.295288 950.104858,572.743164 
	C945.009460,573.110596 939.877991,573.557617 934.791321,573.329163 
	C927.332825,572.994446 919.909973,571.923462 912.453430,571.470886 
	C904.598145,570.994019 897.805725,572.773621 894.846558,581.302002 
	C894.592102,582.035339 893.903198,582.680237 893.285889,583.216309 
	C878.897827,595.712341 863.772949,607.001282 845.686462,613.822754 
	C834.709167,617.962952 823.949524,622.680298 812.788025,627.263245 
	C812.497070,626.488464 811.645935,624.710571 811.154419,622.838257 
	C806.107117,603.611145 795.410767,587.669495 781.372498,574.123779 
	C774.185059,567.188477 769.658691,559.637207 766.689636,550.088257 
	C758.932617,525.140259 742.108276,509.478973 715.946716,504.751465 
	C699.516174,501.782379 685.164062,493.589233 670.462402,486.437134 
	C661.990540,482.315643 661.336243,479.235504 663.555298,470.322235 
	C669.168213,470.322235 674.652710,470.523376 680.116516,470.272491 
	C687.326355,469.941406 691.260315,466.126099 691.742676,459.721100 
	C692.416626,450.772614 693.066895,441.817291 694.080139,432.904968 
	C694.225525,431.626862 696.157043,430.189636 697.586914,429.491272 
	C701.124084,427.763611 702.094543,425.285278 700.666138,421.743042 
	C699.235046,418.194092 697.847168,414.623779 696.281555,411.134125 
	C694.363464,406.859009 693.897278,402.791351 695.709900,398.173462 
	C696.792542,395.415283 696.781433,391.929169 696.309631,388.919556 
	C695.213257,381.926361 693.539551,375.023682 692.333618,369.211060 
	C696.473022,365.401520 700.068726,362.092346 703.664490,358.783142 
	C703.351807,358.443176 703.039062,358.103180 702.726379,357.763184 
	C702.293457,357.996063 701.860474,358.228943 700.823120,357.893677 
	C700.611572,357.715698 700.400024,357.537720 700.387817,356.691437 
	C704.510559,351.220032 706.752808,345.253448 705.625854,338.668762 
	C701.115784,339.382660 696.914856,340.047638 692.898438,340.683411 
	C695.596313,335.742401 697.933228,331.462463 700.270142,327.182526 
	C699.829102,326.794800 699.388062,326.407104 698.947021,326.019379 
	C690.079285,330.640503 681.220215,329.228058 672.310303,326.551971 
	C666.104370,324.688080 659.891907,322.780640 653.577942,321.355072 
	C639.918823,318.271118 626.210327,317.492126 612.765869,322.413879 
	C605.284241,325.152802 598.501038,329.130280 595.059814,336.772552 
	C593.806946,339.554901 592.232605,340.215515 589.451355,340.293121 
	C583.444153,340.460785 578.411255,343.023254 573.408875,347.714844 
	C576.123413,347.223572 577.870544,346.907379 580.064270,347.077057 
	C580.213806,347.238342 580.363342,347.399658 580.070007,348.047119 
	C568.312195,358.030945 564.185303,371.271851 566.768127,385.751953 
	C568.601074,396.028259 572.911804,405.978180 576.994141,415.705444 
	C581.155884,425.622070 586.502747,435.035828 591.073364,444.790344 
	C592.156555,447.102020 592.939087,449.989929 592.619202,452.451508 
	C590.846985,466.084625 587.708496,479.120514 574.010803,486.261169 
	C573.791199,486.375641 573.756226,486.844238 573.473755,487.551605 
	C574.286499,488.984985 575.229065,490.647400 576.138123,492.250702 
	C588.493591,486.318970 595.292847,476.526855 598.907349,464.153625 
	C602.372620,452.291321 605.914246,440.451263 609.264832,429.133453 
	C612.466614,429.757965 614.873779,430.227509 617.113464,431.108398 
	C617.292725,431.253693 617.471985,431.398987 617.651245,431.544281 
	C617.486389,431.300995 617.321533,431.057709 616.716736,430.298920 
	C610.639221,427.345795 607.009583,422.303162 605.045105,416.059113 
	C602.762146,408.802795 604.725830,402.385651 609.563965,400.250702 
	C614.829590,397.927124 619.737122,400.422607 623.603027,407.973419 
	C625.518066,411.713837 627.880798,413.103851 632.077026,411.563782 
	C632.077026,409.696564 632.151062,407.883301 632.063171,406.077911 
	C631.796631,400.603302 632.541016,395.411316 636.250916,391.076172 
	C639.984619,386.713226 641.023315,381.666626 640.189697,376.133606 
	C639.772461,373.364441 639.229492,370.614197 638.762634,367.964722 
	C639.145935,367.598114 639.342285,367.268677 639.623169,367.162048 
	C653.713318,361.813660 667.478577,364.663055 681.175781,368.873535 
	C681.758179,369.052551 682.557617,369.544220 682.683899,370.036865 
	C684.769775,378.176575 688.821350,386.508972 688.168945,394.447815 
	C687.578918,401.627319 687.899475,407.731415 690.781128,414.042999 
	C691.953186,416.610077 692.936279,419.282013 693.753723,421.982391 
	C694.041382,422.932617 693.871399,424.894104 693.413208,425.065643 
	C687.255798,427.370483 686.274719,431.719696 688.141846,437.383362 
	C688.225769,437.637634 687.923523,437.999664 687.865662,438.323059 
	C686.760742,444.496582 685.256165,450.635040 684.696655,456.858276 
	C684.240112,461.935974 683.168030,463.919159 677.940613,464.001923 
	C672.961060,464.080780 667.944153,463.896210 662.996948,463.347290 
	C657.794495,462.770050 652.655090,461.623291 647.488159,460.725403 
	C649.342163,462.934967 651.635498,464.166412 653.545654,465.836273 
	C654.395386,466.579132 655.028931,468.314270 654.814270,469.414368 
	C652.711975,480.189026 650.409851,490.924683 648.164551,501.671448 
	C648.500183,501.842682 648.835754,502.013885 649.171387,502.185089 
	C652.533264,497.790588 655.895142,493.396057 659.062927,489.255280 
	C664.618652,492.533630 669.868225,495.631317 675.568359,498.994934 
	C664.395996,516.631958 648.448853,526.914490 628.077637,526.955017 
	C600.593689,527.009705 581.315308,512.349060 568.619751,488.144653 
	C568.230042,488.325836 567.671387,488.640961 567.076233,488.854095 
	C555.677429,492.935852 544.550720,499.130768 532.817383,500.656555 
	C504.194611,504.378693 485.090454,518.934021 475.244232,545.587769 
	C472.618927,552.694397 468.612640,557.688538 462.674133,562.089844 
	C447.458649,573.366821 435.390900,587.304138 428.683838,605.364136 
	C428.095215,606.949280 427.273285,608.447815 426.749969,609.576355 
	C419.574921,603.849548 412.936432,598.025391 405.772522,592.941467 
	C390.358582,582.002930 375.895233,570.083252 363.806519,555.446533 
	C362.921722,554.375183 361.540802,553.410339 360.214722,553.058472 
	C354.097382,551.435486 350.444366,547.242737 348.846283,541.529419 
	C347.377441,536.278259 346.178040,530.795410 346.003906,525.377808 
	C345.784119,518.540100 343.256683,513.329590 338.435608,508.688049 
	C332.512207,502.985199 334.412079,493.069427 341.809418,489.625092 
	C338.885040,483.533447 337.101532,484.098450 331.365234,483.154999 
	C326.907013,482.421753 322.288239,481.897278 317.967316,480.874634 
	C314.285797,480.003265 311.785095,479.825897 308.414612,481.958313 
	C307.854004,481.945312 307.293396,481.932343 306.053650,481.542999 
M842.525024,566.757507 
	C903.149353,566.764099 963.773743,566.778503 1024.398071,566.768005 
	C1032.642944,566.766602 1035.257202,564.560852 1037.203247,556.568604 
	C1044.433105,526.876282 1051.689087,497.190369 1058.970703,467.510742 
	C1061.572632,456.905212 1059.735718,454.437744 1048.971191,454.424286 
	C1009.665466,454.375092 970.359680,454.343140 931.053955,454.284943 
	C922.660706,454.272522 920.143860,456.257294 918.239136,464.359131 
	C911.421875,493.357300 904.484253,522.327759 897.835938,551.364502 
	C896.891113,555.490967 895.125671,556.439453 891.128723,556.396729 
	C871.145081,556.183044 851.157776,556.279907 831.171936,556.325012 
	C826.240051,556.336121 823.910278,559.500977 826.440674,563.154663 
	C827.662537,564.918762 830.343933,566.163513 832.572998,566.615967 
	C835.452026,567.200256 838.539734,566.756287 842.525024,566.757507 
M965.645691,798.465454 
	C970.838745,790.912964 978.567261,788.008362 986.894348,790.479553 
	C993.982300,792.583008 997.638550,798.099792 997.964417,807.531006 
	C998.136902,812.525208 998.057434,817.528809 998.061279,822.528137 
	C998.071350,835.662231 998.064636,848.796265 998.064636,862.214233 
	C1002.703674,862.214233 1006.911133,862.214233 1010.993591,862.214233 
	C1010.993591,842.057556 1011.986877,822.191589 1010.725769,802.469910 
	C1009.352539,780.994934 984.532837,770.217041 966.803894,782.515442 
	C963.591919,784.743652 960.782532,787.552063 957.923584,789.976990 
	C947.319946,774.395752 929.299194,773.169128 913.059204,788.188904 
	C913.059204,785.037720 913.059204,782.325745 913.059204,779.497986 
	C908.475464,779.497986 904.418518,779.497986 900.262329,779.497986 
	C900.262329,807.259583 900.262329,834.663879 900.262329,862.153076 
	C904.788635,862.153076 909.000732,862.153076 913.479797,862.153076 
	C913.479797,859.626831 913.481628,857.474426 913.479553,855.322083 
	C913.465515,841.156189 913.325378,826.988647 913.519958,812.825623 
	C913.571655,809.060059 914.142761,805.135498 915.356384,801.585022 
	C918.324951,792.899963 926.100281,788.652832 935.587097,789.951050 
	C943.371460,791.016296 948.651672,796.937500 948.862244,806.199158 
	C949.229614,822.356689 949.048218,838.526733 949.094421,854.691528 
	C949.101440,857.131714 949.095398,859.571899 949.095398,862.109192 
	C953.898499,862.109192 958.103394,862.109192 962.475647,862.109192 
	C962.475647,845.865173 962.255371,830.032471 962.603821,814.212280 
	C962.714844,809.168152 964.335815,804.157166 965.645691,798.465454 
M812.998901,778.495544 
	C790.926575,774.452576 772.595520,785.783630 768.063904,807.549744 
	C766.381348,815.631531 766.431763,824.559387 767.879883,832.712769 
	C771.590271,853.603638 787.660400,865.297424 808.823425,863.903625 
	C823.870728,862.912659 835.402222,855.046021 839.375000,842.770935 
	C835.910461,841.366150 832.418457,839.950195 829.005493,838.566284 
	C818.717590,851.529297 808.806152,855.269043 796.664429,850.938538 
	C786.528748,847.323547 780.514404,837.570496 780.836243,824.954224 
	C801.111206,824.954224 821.397461,824.954224 841.630188,824.954224 
	C845.345886,803.093506 833.503906,783.575439 812.998901,778.495544 
M407.941376,828.442810 
	C401.638977,813.251770 395.392487,798.036865 388.946869,782.906799 
	C388.309357,781.410400 386.563812,779.559021 385.143890,779.381531 
	C381.252808,778.895203 377.261108,779.213928 372.694611,779.213928 
	C374.026001,782.471863 375.089417,785.213684 376.257416,787.910217 
	C386.297028,811.088623 396.368469,834.253235 406.380737,857.443481 
	C407.085815,859.076538 408.028259,860.973267 407.790497,862.590088 
	C405.682159,876.928894 398.688629,883.038635 384.787811,883.055237 
	C384.508301,883.055603 384.229095,883.311646 383.846313,883.499084 
	C383.846313,886.877869 383.846313,890.287842 383.846313,893.643677 
	C402.070862,896.398132 409.166656,892.595642 416.170349,876.103577 
	C426.825409,851.013489 437.358429,825.871338 447.889740,800.728943 
	C450.804443,793.770386 453.529602,786.732483 456.550171,779.212036 
	C452.789215,779.212036 449.778046,779.483093 446.837067,779.144531 
	C443.009125,778.703918 441.290894,780.313538 439.986053,783.802979 
	C435.855804,794.847961 431.401093,805.772400 427.015411,816.720825 
	C423.257874,826.101013 419.422607,835.450073 415.282806,845.647644 
	C412.642029,839.513977 410.415161,834.341797 407.941376,828.442810 
M254.816162,838.293152 
	C253.194946,840.193787 251.777603,842.328430 249.914520,843.951416 
	C244.195465,848.933777 242.790421,855.036560 244.598175,862.366089 
	C267.367249,862.366089 290.110260,862.366089 312.945801,862.366089 
	C312.945801,858.221680 312.945801,854.361389 312.945801,850.169678 
	C295.987823,850.169678 279.428131,850.169678 261.942566,850.169678 
	C263.184418,848.722717 263.900055,847.897705 264.606293,847.064636 
	C278.819458,830.300537 292.735107,813.269409 307.408447,796.918335 
	C312.382843,791.375244 312.177979,785.866089 311.661102,779.523926 
	C288.952820,779.523926 266.594055,779.523926 244.291641,779.523926 
	C244.291641,783.528748 244.291641,787.152710 244.291641,791.247314 
	C260.763641,791.247314 277.020935,791.247314 294.687439,791.247314 
	C280.996399,807.390442 268.127686,822.563904 254.816162,838.293152 
M549.548523,789.160706 
	C557.917786,789.386353 566.006958,790.210266 570.266602,799.223572 
	C574.102844,798.337158 577.739075,797.496887 581.345520,796.663574 
	C580.860901,789.147644 576.609131,784.728394 570.812500,782.050964 
	C557.543091,775.921753 543.950867,775.833801 530.771912,782.180176 
	C522.385620,786.218628 518.315369,793.463684 518.773438,802.921509 
	C519.220459,812.150024 524.329102,817.964905 532.670166,821.179199 
	C535.604858,822.310120 538.644653,823.218384 541.698425,823.979858 
	C548.788208,825.747864 555.984802,827.123535 563.002136,829.132874 
	C567.223938,830.341675 570.159180,833.401428 570.772644,838.018921 
	C571.341431,842.300171 570.015076,846.098511 566.437500,848.535156 
	C564.161743,850.085205 561.429260,851.330627 558.736450,851.840027 
	C546.043579,854.241577 534.895630,852.029785 527.636536,840.108459 
	C523.949158,841.904236 520.549194,843.560120 516.447693,845.557617 
	C518.551514,848.561646 519.921875,851.879761 522.390503,853.742065 
	C526.687927,856.983948 531.364197,860.299133 536.414124,861.851929 
	C548.002686,865.415466 559.815674,865.049744 571.034790,859.974304 
	C580.124756,855.862061 585.198608,846.995789 584.588623,837.455994 
	C583.935303,827.240112 578.345337,820.932190 568.866882,817.850769 
	C565.240845,816.671936 561.507324,815.812378 557.802429,814.889343 
	C551.367432,813.286133 544.837036,812.007812 538.502808,810.080261 
	C534.829041,808.962402 532.337036,806.171570 532.214111,801.939941 
	C532.087524,797.584961 533.575012,793.810425 537.638672,792.075134 
	C541.076416,790.607178 544.929138,790.111023 549.548523,789.160706 
M667.902283,838.578125 
	C667.422302,856.652954 681.974365,868.035156 706.398071,861.335327 
	C706.191162,857.784668 705.981384,854.184265 705.756592,850.327454 
	C703.546204,850.655945 701.783813,850.907776 700.024780,851.180908 
	C686.930908,853.213745 681.495056,848.683777 681.410522,835.589966 
	C681.363220,828.265381 681.407349,820.940247 681.408569,813.615356 
	C681.409790,806.004883 681.408875,798.394470 681.408875,790.292725 
	C690.130493,790.292725 698.204041,790.292725 706.497131,790.292725 
	C706.497131,786.396606 706.497131,783.004761 706.497131,779.082520 
	C698.104431,779.082520 690.027222,779.082520 681.428467,779.082520 
	C681.428467,771.645142 681.428467,764.732788 681.428467,757.661743 
	C676.660095,757.661743 672.432190,757.661743 667.732666,757.661743 
	C667.732666,764.840393 667.732666,771.754089 667.732666,779.139404 
	C660.855713,779.139404 654.435913,779.139404 647.848633,779.139404 
	C647.848633,783.036682 647.848633,786.447693 647.848633,790.540649 
	C654.609497,790.540649 661.141602,790.540649 667.876465,790.540649 
	C667.876465,806.703125 667.876465,822.181824 667.902283,838.578125 
M260.759155,527.813538 
	C261.460693,531.053101 262.069366,534.316406 262.887329,537.526306 
	C263.900513,541.502258 266.087097,544.758728 270.433105,545.149170 
	C275.448822,545.599854 280.988983,546.736450 283.929138,540.629272 
	C283.113190,539.198181 282.157074,537.843018 281.539154,536.348022 
	C280.909393,534.824402 280.469238,533.187805 280.190979,531.558838 
	C276.322144,508.912415 277.684784,486.477661 283.354401,464.301727 
	C284.117554,461.316895 286.307648,458.696899 288.269409,455.119415 
	C286.959778,450.864868 283.140656,449.081696 277.641510,448.931000 
	C272.009186,448.776733 268.407837,451.028259 266.323792,456.017426 
	C265.430298,458.156464 264.663513,460.371002 264.081879,462.614166 
	C258.582825,483.822113 257.842743,505.297913 260.759155,527.813538 
M370.346924,535.666138 
	C366.905823,516.941650 367.584381,498.185822 370.533173,479.523407 
	C371.393280,474.079865 373.959869,468.913269 375.629395,463.583740 
	C375.941071,462.588806 375.997437,461.323547 375.668915,460.353180 
	C374.577881,457.130280 373.156311,454.037781 369.084625,453.805756 
	C364.501648,453.544617 359.491852,452.268982 356.721710,457.622559 
	C355.511383,459.961670 354.456757,462.463959 353.841034,465.015167 
	C348.745422,486.129028 348.166321,507.513397 350.657623,528.990662 
	C351.205566,533.714539 352.379852,538.538025 354.249512,542.893311 
	C356.659790,548.508118 363.246216,550.601807 368.138672,548.136719 
	C372.121796,546.129822 372.924713,542.375366 370.346924,535.666138 
M375.921417,473.549347 
	C371.988037,492.792633 371.537262,512.167603 374.105927,531.592102 
	C374.548828,534.941406 374.648254,539.195496 379.826141,539.655273 
	C386.362701,540.235657 389.001678,539.232422 390.756683,533.679749 
	C392.737976,527.411133 393.943573,520.897339 395.445953,514.658630 
	C390.436249,512.421509 389.363373,511.291473 389.523132,505.837433 
	C389.684174,500.338196 388.243073,493.823120 396.077148,491.317108 
	C395.283813,484.857178 394.701935,478.572205 393.687073,472.357971 
	C392.911926,467.611816 390.394836,465.069641 384.917206,464.786163 
	C378.631470,464.460938 377.452240,468.373230 375.921417,473.549347 
M257.063782,473.900513 
	C258.106842,469.114594 259.149872,464.328644 260.194214,459.536652 
	C249.195236,457.704163 245.759567,459.605957 243.474899,469.839294 
	C239.566940,487.343689 238.633545,505.035492 241.868332,522.769226 
	C243.631592,532.435791 246.770935,534.381958 256.849396,532.754517 
	C253.771545,513.423706 253.848633,494.090424 257.063782,473.900513 
M980.500061,924.287170 
	C970.679443,924.302002 960.857117,924.232605 951.040039,924.426880 
	C949.645325,924.454407 948.275879,925.762512 946.894775,926.477966 
	C948.232605,927.230835 949.565430,928.628845 950.908997,928.639343 
	C969.883362,928.787292 988.859619,928.792664 1007.833984,928.650208 
	C1009.127136,928.640564 1010.409363,927.178284 1011.696655,926.391479 
	C1010.453064,925.697205 1009.221375,924.426819 1007.964111,924.400940 
	C999.145752,924.219421 990.322083,924.294861 980.500061,924.287170 
M244.289581,924.764282 
	C243.151672,927.899109 244.364716,928.864380 247.540970,928.846313 
	C266.690399,928.737183 285.841003,928.808350 304.989807,928.653015 
	C306.350159,928.641968 307.699707,927.302673 309.054321,926.581055 
	C307.713531,925.819214 306.376953,924.402527 305.031311,924.393921 
	C285.050842,924.265198 265.069183,924.322998 244.289581,924.764282 
M897.282654,925.914856 
	C898.800781,928.674561 900.318970,931.434265 902.202576,934.858337 
	C904.392212,931.064819 905.972900,928.326294 907.553589,925.587708 
	C908.444885,928.251404 908.251953,930.587402 908.524841,932.867737 
	C908.665222,934.040588 909.635864,935.114014 910.231323,936.232361 
	C910.773499,935.208008 911.741516,934.200928 911.783936,933.156372 
	C911.965942,928.676086 911.977234,924.180908 911.807434,919.700378 
	C911.768555,918.674377 910.763916,917.684998 910.203674,916.678711 
	C909.203308,917.364746 907.792664,917.828247 907.277832,918.777588 
	C905.579651,921.909363 904.205444,925.216797 902.350830,929.226562 
	C900.204102,925.090210 898.589111,921.668823 896.648621,918.443298 
	C896.120972,917.566284 894.611755,917.279724 893.553040,916.722168 
	C893.124817,917.674866 892.350708,918.619019 892.327026,919.581665 
	C892.212646,924.231873 892.220276,928.889832 892.385010,933.538025 
	C892.416931,934.437622 893.341919,935.305603 893.854980,936.188171 
	C894.470215,935.277100 895.426880,934.437256 895.634827,933.441162 
	C896.198120,930.743530 896.443420,927.979553 897.282654,925.914856 
M769.813782,934.485596 
	C769.933716,917.660828 769.933716,917.660828 766.791443,917.110352 
	C766.619202,920.893433 766.448242,924.649170 766.257019,928.849792 
	C761.327148,925.018250 761.051575,918.038208 754.050598,916.496948 
	C754.050598,922.696289 753.983826,928.142639 754.119019,933.583923 
	C754.140564,934.449890 755.069702,935.293274 755.579163,936.147034 
	C756.160645,935.192749 757.164185,934.272095 757.243652,933.277710 
	C757.471130,930.430176 757.323730,927.552673 757.323730,924.686890 
	C757.775940,924.589172 758.228149,924.491455 758.680359,924.393677 
	C760.830811,927.627380 762.779724,931.028259 765.245667,934.000122 
	C766.063110,934.985352 768.210754,934.866699 769.813782,934.485596 
M527.647278,932.665283 
	C527.322815,929.792175 526.482971,926.862427 526.791260,924.058838 
	C527.288147,919.540283 525.685913,917.006653 521.081238,916.778259 
	C518.500793,916.650269 515.908813,916.755249 513.205750,916.755249 
	C513.205750,923.520630 513.205750,929.615845 513.205750,936.233032 
	C518.118835,935.526062 523.326355,938.243591 527.647278,932.665283 
M617.083679,916.663208 
	C614.980408,916.663208 612.877075,916.663208 610.682861,916.663208 
	C610.682861,923.447083 610.682861,929.626709 610.682861,935.756104 
	C621.056580,937.035706 625.556763,934.798401 626.457336,928.130493 
	C627.326050,921.698608 624.423889,917.814575 617.083679,916.663208 
M396.458832,510.097046 
	C398.782135,510.156799 401.435455,510.946533 403.342102,510.084595 
	C405.539612,509.091156 408.334595,506.798859 408.590790,504.781219 
	C408.926605,502.136444 407.873779,497.823456 405.946320,496.654144 
	C399.325592,492.637421 393.707062,496.449005 394.075073,504.204102 
	C394.164001,506.078308 395.144897,507.910156 396.458832,510.097046 
M366.233215,931.080872 
	C366.778320,932.774231 367.323456,934.467651 367.868561,936.161011 
	C368.813843,933.989319 369.759094,931.817627 371.229370,928.439758 
	C372.687927,929.753174 374.542877,930.942139 375.741638,932.604370 
	C378.129639,935.915344 377.980621,936.022827 381.187714,935.413940 
	C379.904907,933.274048 378.645050,931.172424 377.385193,929.070862 
	C377.931641,929.082825 378.478058,929.094788 379.024506,929.106750 
	C379.457947,926.018799 381.236359,922.226685 380.060638,919.981323 
	C377.100220,914.327454 371.288300,917.478271 366.231018,916.635742 
	C366.231018,921.568176 366.231018,925.871765 366.233215,931.080872 
M700.461914,936.180054 
	C701.219055,933.854248 701.976135,931.528442 703.126709,927.993958 
	C704.884949,929.647217 706.642029,930.810120 707.729980,932.424072 
	C710.018127,935.818115 709.874023,935.915283 713.135315,935.450867 
	C711.855713,933.290588 710.617737,931.200500 709.379761,929.110474 
	C709.899963,929.145020 710.420166,929.179626 710.940430,929.214172 
	C711.410156,926.143250 713.222290,922.398315 712.085510,920.133972 
	C709.238159,914.462463 703.523315,917.306580 697.877319,916.572327 
	C698.544312,923.664062 699.131775,929.910034 700.461914,936.180054 
M873.663452,916.783447 
	C870.860229,916.783447 868.057007,916.783447 864.918518,916.783447 
	C864.918518,922.634216 864.822876,928.113586 865.007263,933.583557 
	C865.040283,934.561462 866.232239,935.500305 866.889099,936.457153 
	C867.255554,936.226013 867.622009,935.994812 867.988464,935.763672 
	C868.118713,933.660706 868.249023,931.557800 868.371216,929.585205 
	C872.337097,927.851624 873.061584,931.000732 874.665955,932.964233 
	C875.781189,934.329041 877.362549,935.312866 878.735718,936.466919 
	C879.063599,936.090210 879.391479,935.713562 879.719299,935.336853 
	C878.441956,933.262756 877.164612,931.188599 875.935303,929.192505 
	C881.392151,923.383667 880.848816,919.502197 873.663452,916.783447 
M453.653564,923.847839 
	C453.605774,922.520874 453.726685,921.158691 453.458710,919.877808 
	C453.230255,918.785889 452.554474,917.787598 452.076508,916.747864 
	C451.446259,917.826294 450.323456,918.881897 450.272156,919.987183 
	C450.064758,924.459717 450.079926,928.952087 450.268585,933.426331 
	C450.311951,934.455078 451.368927,935.441101 452.250824,936.943054 
	C453.505402,933.145508 454.362122,930.552246 455.266754,927.814026 
	C459.506195,930.277710 459.542755,936.419250 465.864410,936.414062 
	C462.955353,932.114136 460.735748,928.833313 458.427521,925.421509 
	C459.550873,923.992859 460.571625,922.709412 461.575958,921.413330 
	C462.618561,920.067993 463.645264,918.710449 464.678955,917.358215 
	C464.367157,917.000122 464.055359,916.642029 463.743561,916.283936 
	C462.381012,917.147095 460.882507,917.855713 459.686218,918.907898 
	C457.652496,920.696472 455.809113,922.701416 453.653564,923.847839 
M555.911011,920.007324 
	C555.334900,918.861084 554.758789,917.714844 554.182739,916.568604 
	C553.599060,917.716309 552.611023,918.830078 552.511292,920.018311 
	C552.262146,922.986938 552.927429,926.118408 552.218262,928.930359 
	C551.788330,930.635254 549.482056,931.866882 548.018738,933.311096 
	C546.648010,931.830200 544.456604,930.527893 544.086975,928.829163 
	C543.430786,925.813782 544.025269,922.546509 543.779236,919.409546 
	C543.703735,918.446655 542.593018,917.564880 541.956299,916.645996 
	C541.421753,917.502808 540.466614,918.340637 540.426819,919.219849 
	C540.269348,922.698181 540.195251,926.205750 540.471375,929.672119 
	C540.842651,934.332825 543.765137,936.636108 548.576843,936.489990 
	C553.036316,936.354614 555.594177,933.946228 555.869019,929.351135 
	C556.037231,926.537964 555.907715,923.706909 555.911011,920.007324 
M789.528748,936.467773 
	C793.089722,936.305420 796.373169,935.417419 796.849976,931.277527 
	C797.341125,927.013000 794.150391,925.674927 790.730652,924.799500 
	C789.928955,924.594299 789.015747,924.487000 788.389160,924.019287 
	C787.559387,923.400146 786.960999,922.470886 786.263245,921.674866 
	C787.223816,920.921997 788.105042,919.725342 789.166321,919.535461 
	C790.329834,919.327271 791.645386,920.146240 792.921631,920.330933 
	C793.849976,920.465149 794.822266,920.296021 795.774963,920.262207 
	C795.268616,919.359985 794.976685,918.038696 794.209534,917.646179 
	C792.787231,916.918396 790.767456,915.975098 789.569580,916.480347 
	C787.094849,917.523987 783.908386,918.993774 782.991028,921.135010 
	C781.509705,924.592346 784.640442,926.341370 787.723511,927.290955 
	C788.831970,927.632324 790.107239,927.700562 791.027100,928.312927 
	C792.018860,928.973206 792.683472,930.124878 793.490845,931.062195 
	C792.350220,931.811890 791.292297,932.918945 790.044922,933.207886 
	C788.865784,933.481079 787.487000,932.898499 786.197021,932.685852 
	C785.097839,932.504639 784.000122,932.314209 782.901794,932.127808 
	C783.580139,933.248047 784.026062,934.686768 785.002136,935.399109 
	C785.983276,936.115112 787.492188,936.108093 789.528748,936.467773 
M852.138550,928.763794 
	C852.351318,920.333496 848.723267,915.796997 842.356384,916.532410 
	C837.652832,917.075745 834.589539,920.581970 834.303894,925.749268 
	C834.017700,930.925842 836.663330,935.062622 840.950134,936.141541 
	C845.860535,937.377380 849.583008,935.151001 852.138550,928.763794 
M725.278015,936.102051 
	C726.058228,935.965393 727.151978,936.112061 727.570618,935.648743 
	C732.398682,930.304871 734.455322,930.304443 739.310791,935.607178 
	C739.788086,936.128540 741.001038,935.976379 742.540771,936.259888 
	C740.170471,930.065308 738.122375,924.469543 735.838989,918.971436 
	C735.431152,917.989441 734.127380,917.000671 733.087097,916.801941 
	C732.461426,916.682495 731.157471,917.939392 730.822510,918.828125 
	C728.719604,924.407227 726.803467,930.056702 725.278015,936.102051 
M401.503021,916.765137 
	C400.828491,917.138733 399.766815,917.353821 399.539032,917.910278 
	C397.131165,923.791931 394.856140,929.727966 392.263519,936.368774 
	C395.983429,934.557861 398.806183,932.115845 401.629700,932.114990 
	C404.352112,932.114197 407.075317,934.633789 409.798157,936.046082 
	C410.129791,935.804199 410.461426,935.562317 410.793091,935.320435 
	C407.920807,929.146423 405.048553,922.972351 401.503021,916.765137 
M428.878510,916.432617 
	C427.654175,916.916626 426.306427,917.211975 425.227051,917.917786 
	C420.790131,920.818970 419.695221,927.811829 422.826233,932.577332 
	C425.424042,936.531250 431.271606,937.809021 435.075653,935.030823 
	C436.041046,934.325684 436.417847,932.814697 437.065094,931.674011 
	C435.986694,931.876770 434.900085,932.284119 433.831482,932.241455 
	C431.269012,932.139099 427.779083,932.783264 426.356537,931.393250 
	C423.574615,928.675171 423.716461,924.662415 426.223633,921.410095 
	C428.289368,918.730469 431.000488,918.969238 433.787292,920.535461 
	C434.741089,921.071411 435.907654,921.228699 436.977020,921.559021 
	C437.229858,920.868164 437.482727,920.177307 437.735596,919.486450 
	C435.036102,918.439880 432.336639,917.393311 428.878510,916.432617 
M814.739014,916.759583 
	C813.149353,916.759583 811.559692,916.759583 809.703491,916.759583 
	C809.703491,922.742249 809.635986,928.200195 809.774597,933.652893 
	C809.796021,934.492737 810.765076,935.308411 811.295898,936.135254 
	C811.840759,935.324341 812.747192,934.559021 812.856506,933.693176 
	C813.095703,931.797363 812.930481,929.850464 812.930481,928.138184 
	C816.384277,927.815857 819.128479,927.559753 821.872681,927.303650 
	C821.877014,926.683228 821.881348,926.062866 821.885620,925.442505 
	C819.006104,925.159790 816.126587,924.877075 813.253784,924.595032 
	C813.253784,922.930359 813.253784,921.343323 813.253784,919.680420 
	C816.698425,919.512512 819.856384,919.358643 823.014404,919.204712 
	C823.033325,918.479675 823.052246,917.754700 823.071167,917.029724 
	C820.586670,916.940674 818.102234,916.851685 814.739014,916.759583 
M228.504715,502.226929 
	C230.755493,502.226929 233.006287,502.226929 235.461578,502.226929 
	C235.722549,497.501007 235.966888,493.076141 236.224152,488.417358 
	C232.353912,488.250153 228.393784,486.708801 226.207718,490.953430 
	C224.234940,494.783905 224.225204,498.656128 228.504715,502.226929 
M685.798340,917.094543 
	C680.876465,917.094543 675.954651,917.094543 671.032776,917.094543 
	C671.004456,917.705872 670.976074,918.317200 670.947754,918.928467 
	C672.844238,919.295166 674.740723,919.661865 677.008179,920.100281 
	C677.008179,922.025146 677.009460,924.000916 677.007812,925.976746 
	C677.005920,928.142822 676.824829,930.328369 677.061035,932.468018 
	C677.214661,933.858704 677.974548,935.182495 678.462830,936.536255 
	C679.096436,936.367981 679.729980,936.199707 680.363586,936.031433 
	C680.363586,930.647156 680.363586,925.262939 680.363586,920.946838 
	C682.839172,919.577759 684.484985,918.667542 685.798340,917.094543 
M348.000031,927.455322 
	C348.000031,924.990906 348.000031,922.526550 348.000031,920.113342 
	C350.198608,919.682129 352.083557,919.312439 354.830688,918.773682 
	C350.258453,916.029602 341.262909,916.205994 338.191132,918.832458 
	C340.519775,919.275940 342.477661,919.648743 344.727966,920.077271 
	C344.727966,924.771729 344.648773,929.214172 344.796051,933.649048 
	C344.824829,934.515198 345.732269,935.352051 346.234467,936.202454 
	C346.813995,935.421326 347.768616,934.696106 347.895172,933.847412 
	C348.160950,932.065186 347.991577,930.218079 348.000031,927.455322 
M585.883850,919.177246 
	C585.883850,924.750671 585.883850,930.324158 585.883850,936.347961 
	C590.703369,936.121216 594.830750,935.927063 598.958130,935.732849 
	C598.942322,935.019897 598.926453,934.306885 598.910645,933.593933 
	C595.775757,933.387451 592.640930,933.180969 589.168396,932.952332 
	C589.168396,928.321289 589.245972,923.874878 589.105164,919.435425 
	C589.075806,918.510193 588.238831,917.610596 587.774048,916.699158 
	C587.147339,917.244812 586.520630,917.790466 585.883850,919.177246 
M569.736145,916.858154 
	C569.524231,922.742615 569.271667,928.626343 569.166199,934.512695 
	C569.156250,935.073486 570.008301,936.029663 570.564758,936.114258 
	C571.126953,936.199707 572.369568,935.432617 572.372131,935.033203 
	C572.408997,929.113098 572.311157,923.191406 572.132629,917.273438 
	C572.124695,917.009766 571.044739,916.778442 569.736145,916.858154 
M345.242584,496.876770 
	C345.149170,495.806458 345.055756,494.736145 344.912750,493.097870 
	C341.007935,494.852600 339.137909,497.825500 339.496185,501.032501 
	C339.790009,503.662323 342.045258,506.072998 343.431091,508.580811 
	C344.020996,508.366577 344.610931,508.152313 345.200836,507.938080 
	C345.200836,504.511322 345.200836,501.084534 345.242584,496.876770 
z"/>
<path fill="#FBFBFB" opacity="1.000000" stroke="none" 
	d="
M579.617737,346.591187 
	C577.870544,346.907379 576.123413,347.223572 573.408875,347.714844 
	C578.411255,343.023254 583.444153,340.460785 589.451355,340.293121 
	C592.232605,340.215515 593.806946,339.554901 595.059814,336.772552 
	C598.501038,329.130280 605.284241,325.152802 612.765869,322.413879 
	C626.210327,317.492126 639.918823,318.271118 653.577942,321.355072 
	C659.891907,322.780640 666.104370,324.688080 672.310303,326.551971 
	C681.220215,329.228058 690.079285,330.640503 698.947021,326.019379 
	C699.388062,326.407104 699.829102,326.794800 700.270142,327.182526 
	C697.933228,331.462463 695.596313,335.742401 692.898438,340.683411 
	C696.914856,340.047638 701.115784,339.382660 705.625854,338.668762 
	C706.752808,345.253448 704.510559,351.220032 700.023926,357.208374 
	C699.153870,358.039978 698.647827,358.354645 698.274414,358.964020 
	C698.605469,359.355469 698.803772,359.452240 699.002075,359.549011 
	C698.693726,359.269623 698.385315,358.990234 698.346802,359.170044 
	C699.553650,359.240112 700.490601,358.850952 701.427551,358.461792 
	C701.860474,358.228943 702.293457,357.996063 702.726379,357.763184 
	C703.039062,358.103180 703.351807,358.443176 703.664490,358.783142 
	C700.068726,362.092346 696.473022,365.401520 692.333618,369.211060 
	C693.539551,375.023682 695.213257,381.926361 696.309631,388.919556 
	C696.781433,391.929169 696.792542,395.415283 695.709900,398.173462 
	C693.897278,402.791351 694.363464,406.859009 696.281555,411.134125 
	C697.847168,414.623779 699.235046,418.194092 700.666138,421.743042 
	C702.094543,425.285278 701.124084,427.763611 697.586914,429.491272 
	C696.157043,430.189636 694.225525,431.626862 694.080139,432.904968 
	C693.066895,441.817291 692.416626,450.772614 691.742676,459.721100 
	C691.260315,466.126099 687.326355,469.941406 680.116516,470.272491 
	C674.652710,470.523376 669.168213,470.322235 663.555298,470.322235 
	C661.336243,479.235504 661.990540,482.315643 670.462402,486.437134 
	C685.164062,493.589233 699.516174,501.782379 715.946716,504.751465 
	C742.108276,509.478973 758.932617,525.140259 766.689636,550.088257 
	C769.658691,559.637207 774.185059,567.188477 781.372498,574.123779 
	C795.410767,587.669495 806.107117,603.611145 811.154419,622.838257 
	C811.645935,624.710571 812.497070,626.488464 812.788025,627.263245 
	C823.949524,622.680298 834.709167,617.962952 845.686462,613.822754 
	C863.772949,607.001282 878.897827,595.712341 893.285889,583.216309 
	C893.903198,582.680237 894.592102,582.035339 894.846558,581.302002 
	C897.805725,572.773621 904.598145,570.994019 912.453430,571.470886 
	C919.909973,571.923462 927.332825,572.994446 934.791321,573.329163 
	C939.877991,573.557617 945.009460,573.110596 950.104858,572.743164 
	C956.317810,572.295288 962.513916,571.614075 968.717346,571.033752 
	C968.906494,571.645813 969.095703,572.257812 969.284851,572.869812 
	C963.160217,576.499329 957.035583,580.128906 950.910889,583.758423 
	C951.008789,584.076721 951.106628,584.394958 951.204529,584.713257 
	C954.666931,583.708862 958.238281,582.972900 961.561462,581.625183 
	C964.935486,580.256897 968.470276,578.773743 971.225403,576.486572 
	C979.677307,569.470459 989.309082,571.678467 998.716431,571.784851 
	C998.865173,572.191711 999.013977,572.598572 999.162720,573.005432 
	C989.154968,577.707581 979.039734,582.196167 969.166321,587.165344 
	C956.554932,593.512451 943.373840,596.666016 929.252441,595.591309 
	C921.594727,595.008484 915.990906,597.923706 910.472412,603.571533 
	C892.211914,622.259888 873.766968,640.835266 854.367310,658.315918 
	C844.198547,667.478699 832.046875,674.507080 820.490479,682.038940 
	C813.475769,686.610779 805.439087,687.557373 798.290833,682.669800 
	C774.083130,666.117981 751.917969,647.441162 736.591858,621.763489 
	C732.243469,614.478088 730.981018,607.227356 733.831238,599.387024 
	C736.442688,592.203308 739.446533,585.162170 742.579956,577.510254 
	C743.205872,576.314453 743.529297,575.666626 743.852722,575.018738 
	C743.670227,574.882568 743.487671,574.746460 743.305115,574.610291 
	C742.671265,575.168945 742.037415,575.727661 741.403564,576.286377 
	C729.596863,591.615295 714.626099,604.512390 705.663269,621.996521 
	C702.110168,628.927673 700.047791,636.619568 696.535461,643.575623 
	C682.959351,670.462158 661.489807,688.801147 633.895386,700.291382 
	C610.181335,710.165955 585.471008,715.906738 559.907654,718.088013 
	C558.620422,718.197815 557.315674,718.102173 555.869812,718.102173 
	C555.869812,703.127502 556.895935,688.272339 555.581360,673.627319 
	C554.265564,658.968140 551.276672,644.356384 547.775879,630.028015 
	C544.857117,618.081909 537.446472,608.839539 527.062744,601.623291 
	C521.487793,597.748840 517.268799,591.843933 512.699524,586.626160 
	C508.876984,582.261169 505.434723,577.563110 501.363220,572.593323 
	C500.493256,572.198914 500.084229,572.223816 499.675171,572.248657 
	C499.871948,572.663147 500.068726,573.077637 500.265503,573.492126 
	C502.713745,580.717834 505.500305,587.850830 507.511810,595.196167 
	C509.393341,602.066711 508.038147,608.414246 503.772919,614.556702 
	C493.692719,629.073364 480.617340,640.308472 466.072144,649.870056 
	C456.080963,656.437927 445.626190,662.340576 435.133881,668.094238 
	C425.756195,673.236755 417.191986,671.675232 408.998108,664.516785 
	C387.700409,645.910217 370.508392,623.990845 355.656647,600.100586 
	C344.668671,582.425598 333.852661,564.642700 322.721130,547.059082 
	C320.919861,544.213745 318.112732,541.833069 315.358704,539.793823 
	C305.429108,532.441406 295.305817,525.438843 290.129669,513.440735 
	C288.162842,508.881653 287.307159,504.728973 289.413544,500.049622 
	C291.597778,495.197327 293.180817,490.064575 295.509186,485.289734 
	C297.926788,480.331909 301.281372,479.370728 306.429443,482.128967 
	C304.388672,486.679474 301.972107,490.643951 299.555511,494.608429 
	C300.033691,494.899109 300.511871,495.189789 300.990051,495.480469 
	C303.651489,490.985596 306.312958,486.490723 308.974426,481.995850 
	C311.785095,479.825897 314.285797,480.003265 317.967316,480.874634 
	C322.288239,481.897278 326.907013,482.421753 331.365234,483.154999 
	C337.101532,484.098450 338.885040,483.533447 341.809418,489.625092 
	C334.412079,493.069427 332.512207,502.985199 338.435608,508.688049 
	C343.256683,513.329590 345.784119,518.540100 346.003906,525.377808 
	C346.178040,530.795410 347.377441,536.278259 348.846283,541.529419 
	C350.444366,547.242737 354.097382,551.435486 360.214722,553.058472 
	C361.540802,553.410339 362.921722,554.375183 363.806519,555.446533 
	C375.895233,570.083252 390.358582,582.002930 405.772522,592.941467 
	C412.936432,598.025391 419.574921,603.849548 426.749969,609.576355 
	C427.273285,608.447815 428.095215,606.949280 428.683838,605.364136 
	C435.390900,587.304138 447.458649,573.366821 462.674133,562.089844 
	C468.612640,557.688538 472.618927,552.694397 475.244232,545.587769 
	C485.090454,518.934021 504.194611,504.378693 532.817383,500.656555 
	C544.550720,499.130768 555.677429,492.935852 567.076233,488.854095 
	C567.671387,488.640961 568.230042,488.325836 568.619751,488.144653 
	C581.315308,512.349060 600.593689,527.009705 628.077637,526.955017 
	C648.448853,526.914490 664.395996,516.631958 675.568359,498.994934 
	C669.868225,495.631317 664.618652,492.533630 659.062927,489.255280 
	C655.895142,493.396057 652.533264,497.790588 649.171387,502.185089 
	C648.835754,502.013885 648.500183,501.842682 648.164551,501.671448 
	C650.409851,490.924683 652.711975,480.189026 654.814270,469.414368 
	C655.028931,468.314270 654.395386,466.579132 653.545654,465.836273 
	C651.635498,464.166412 649.342163,462.934967 647.488159,460.725403 
	C652.655090,461.623291 657.794495,462.770050 662.996948,463.347290 
	C667.944153,463.896210 672.961060,464.080780 677.940613,464.001923 
	C683.168030,463.919159 684.240112,461.935974 684.696655,456.858276 
	C685.256165,450.635040 686.760742,444.496582 687.865662,438.323059 
	C687.923523,437.999664 688.225769,437.637634 688.141846,437.383362 
	C686.274719,431.719696 687.255798,427.370483 693.413208,425.065643 
	C693.871399,424.894104 694.041382,422.932617 693.753723,421.982391 
	C692.936279,419.282013 691.953186,416.610077 690.781128,414.042999 
	C687.899475,407.731415 687.578918,401.627319 688.168945,394.447815 
	C688.821350,386.508972 684.769775,378.176575 682.683899,370.036865 
	C682.557617,369.544220 681.758179,369.052551 681.175781,368.873535 
	C667.478577,364.663055 653.713318,361.813660 639.623169,367.162048 
	C639.342285,367.268677 639.145935,367.598114 638.762634,367.964722 
	C639.229492,370.614197 639.772461,373.364441 640.189697,376.133606 
	C641.023315,381.666626 639.984619,386.713226 636.250916,391.076172 
	C632.541016,395.411316 631.796631,400.603302 632.063171,406.077911 
	C632.151062,407.883301 632.077026,409.696564 632.077026,411.563782 
	C627.880798,413.103851 625.518066,411.713837 623.603027,407.973419 
	C619.737122,400.422607 614.829590,397.927124 609.563965,400.250702 
	C604.725830,402.385651 602.762146,408.802795 605.045105,416.059113 
	C607.009583,422.303162 610.639221,427.345795 616.969849,430.529480 
	C617.222961,430.760071 617.280945,430.697021 617.280945,430.697021 
	C614.873779,430.227509 612.466614,429.757965 609.264832,429.133453 
	C605.914246,440.451263 602.372620,452.291321 598.907349,464.153625 
	C595.292847,476.526855 588.493591,486.318970 576.138123,492.250702 
	C575.229065,490.647400 574.286499,488.984985 573.473755,487.551605 
	C573.756226,486.844238 573.791199,486.375641 574.010803,486.261169 
	C587.708496,479.120514 590.846985,466.084625 592.619202,452.451508 
	C592.939087,449.989929 592.156555,447.102020 591.073364,444.790344 
	C586.502747,435.035828 581.155884,425.622070 576.994141,415.705444 
	C572.911804,405.978180 568.601074,396.028259 566.768127,385.751953 
	C564.185303,371.271851 568.312195,358.030945 580.552551,347.657776 
	C581.244080,346.944855 581.453064,346.621277 581.662109,346.297699 
	C580.980652,346.395538 580.299194,346.493378 579.617737,346.591187 
M804.874146,633.814392 
	C804.252258,631.743958 803.653503,629.666260 803.004822,627.604248 
	C798.627014,613.688110 791.483032,601.508240 780.699402,591.519531 
	C778.427551,589.415161 776.593384,588.967957 773.751587,590.481750 
	C762.534241,596.457092 753.824585,604.909546 748.003174,616.177795 
	C747.200378,617.731750 747.110168,620.510071 747.977356,621.941833 
	C760.309387,642.302063 777.509827,657.793884 797.390991,670.502869 
	C801.469482,673.110046 805.721497,672.914307 809.531189,669.982300 
	C823.248352,659.425171 832.084229,645.158508 840.730896,629.185181 
	C828.514893,634.088989 817.512207,638.505737 806.492371,642.929382 
	C805.987976,640.094604 805.502075,637.363342 804.874146,633.814392 
M422.861053,636.677673 
	C424.578674,641.529297 426.034454,646.494507 428.078003,651.204712 
	C430.835815,657.561157 432.595673,658.368164 438.789795,655.364807 
	C459.053650,645.539307 477.323822,632.987305 491.491455,615.152100 
	C492.378448,614.035461 493.160889,612.010132 492.760559,610.822693 
	C488.184448,597.248840 479.933563,586.477173 467.499847,579.165527 
	C466.497711,578.576233 464.490723,578.623962 463.499115,579.247620 
	C446.120209,590.178223 435.947083,605.816406 432.675568,626.264526 
	C427.794403,623.683655 422.481171,620.874390 416.449524,617.685242 
	C418.711975,624.367249 420.667328,630.142151 422.861053,636.677673 
z"/>
<path fill="#FAFAFA" opacity="1.000000" stroke="none" 
	d="
M842.031311,566.756287 
	C838.539734,566.756287 835.452026,567.200256 832.572998,566.615967 
	C830.343933,566.163513 827.662537,564.918762 826.440674,563.154663 
	C823.910278,559.500977 826.240051,556.336121 831.171936,556.325012 
	C851.157776,556.279907 871.145081,556.183044 891.128723,556.396729 
	C895.125671,556.439453 896.891113,555.490967 897.835938,551.364502 
	C904.484253,522.327759 911.421875,493.357300 918.239136,464.359131 
	C920.143860,456.257294 922.660706,454.272522 931.053955,454.284943 
	C970.359680,454.343140 1009.665466,454.375092 1048.971191,454.424286 
	C1059.735718,454.437744 1061.572632,456.905212 1058.970703,467.510742 
	C1051.689087,497.190369 1044.433105,526.876282 1037.203247,556.568604 
	C1035.257202,564.560852 1032.642944,566.766602 1024.398071,566.768005 
	C963.773743,566.778503 903.149353,566.764099 842.031311,566.756287 
M976.876221,519.951660 
	C978.314575,520.291199 979.746948,520.888977 981.192444,520.922913 
	C985.970398,521.035156 990.365601,517.431824 991.500427,512.422119 
	C992.471252,508.136017 991.143799,504.507050 987.481079,502.009003 
	C984.008606,499.640717 978.771240,500.381317 975.551270,503.463654 
	C970.722900,508.085602 970.981995,514.496460 976.876221,519.951660 
z"/>
<path fill="#F7F7F7" opacity="1.000000" stroke="none" 
	d="
M965.455811,798.798218 
	C964.335815,804.157166 962.714844,809.168152 962.603821,814.212280 
	C962.255371,830.032471 962.475647,845.865173 962.475647,862.109192 
	C958.103394,862.109192 953.898499,862.109192 949.095398,862.109192 
	C949.095398,859.571899 949.101440,857.131714 949.094421,854.691528 
	C949.048218,838.526733 949.229614,822.356689 948.862244,806.199158 
	C948.651672,796.937500 943.371460,791.016296 935.587097,789.951050 
	C926.100281,788.652832 918.324951,792.899963 915.356384,801.585022 
	C914.142761,805.135498 913.571655,809.060059 913.519958,812.825623 
	C913.325378,826.988647 913.465515,841.156189 913.479553,855.322083 
	C913.481628,857.474426 913.479797,859.626831 913.479797,862.153076 
	C909.000732,862.153076 904.788635,862.153076 900.262329,862.153076 
	C900.262329,834.663879 900.262329,807.259583 900.262329,779.497986 
	C904.418518,779.497986 908.475464,779.497986 913.059204,779.497986 
	C913.059204,782.325745 913.059204,785.037720 913.059204,788.188904 
	C929.299194,773.169128 947.319946,774.395752 957.923584,789.976990 
	C960.782532,787.552063 963.591919,784.743652 966.803894,782.515442 
	C984.532837,770.217041 1009.352539,780.994934 1010.725769,802.469910 
	C1011.986877,822.191589 1010.993591,842.057556 1010.993591,862.214233 
	C1006.911133,862.214233 1002.703674,862.214233 998.064636,862.214233 
	C998.064636,848.796265 998.071350,835.662231 998.061279,822.528137 
	C998.057434,817.528809 998.136902,812.525208 997.964417,807.531006 
	C997.638550,798.099792 993.982300,792.583008 986.894348,790.479553 
	C978.567261,788.008362 970.838745,790.912964 965.455811,798.798218 
z"/>
<path fill="#F7F7F7" opacity="1.000000" stroke="none" 
	d="
M813.398438,778.593506 
	C833.503906,783.575439 845.345886,803.093506 841.630188,824.954224 
	C821.397461,824.954224 801.111206,824.954224 780.836243,824.954224 
	C780.514404,837.570496 786.528748,847.323547 796.664429,850.938538 
	C808.806152,855.269043 818.717590,851.529297 829.005493,838.566284 
	C832.418457,839.950195 835.910461,841.366150 839.375000,842.770935 
	C835.402222,855.046021 823.870728,862.912659 808.823425,863.903625 
	C787.660400,865.297424 771.590271,853.603638 767.879883,832.712769 
	C766.431763,824.559387 766.381348,815.631531 768.063904,807.549744 
	C772.595520,785.783630 790.926575,774.452576 813.398438,778.593506 
M804.499878,813.738037 
	C812.270630,813.738037 820.041443,813.738037 827.788818,813.738037 
	C828.014709,799.118713 818.017822,789.067932 804.130615,789.359863 
	C790.617493,789.643921 780.168823,800.534424 781.114746,813.737854 
	C788.555969,813.737854 796.027893,813.737854 804.499878,813.738037 
z"/>
<path fill="#F7F7F7" opacity="1.000000" stroke="none" 
	d="
M408.064819,828.806152 
	C410.415161,834.341797 412.642029,839.513977 415.282806,845.647644 
	C419.422607,835.450073 423.257874,826.101013 427.015411,816.720825 
	C431.401093,805.772400 435.855804,794.847961 439.986053,783.802979 
	C441.290894,780.313538 443.009125,778.703918 446.837067,779.144531 
	C449.778046,779.483093 452.789215,779.212036 456.550171,779.212036 
	C453.529602,786.732483 450.804443,793.770386 447.889740,800.728943 
	C437.358429,825.871338 426.825409,851.013489 416.170349,876.103577 
	C409.166656,892.595642 402.070862,896.398132 383.846313,893.643677 
	C383.846313,890.287842 383.846313,886.877869 383.846313,883.499084 
	C384.229095,883.311646 384.508301,883.055603 384.787811,883.055237 
	C398.688629,883.038635 405.682159,876.928894 407.790497,862.590088 
	C408.028259,860.973267 407.085815,859.076538 406.380737,857.443481 
	C396.368469,834.253235 386.297028,811.088623 376.257416,787.910217 
	C375.089417,785.213684 374.026001,782.471863 372.694611,779.213928 
	C377.261108,779.213928 381.252808,778.895203 385.143890,779.381531 
	C386.563812,779.559021 388.309357,781.410400 388.946869,782.906799 
	C395.392487,798.036865 401.638977,813.251770 408.064819,828.806152 
z"/>
<path fill="#F4F4F4" opacity="1.000000" stroke="none" 
	d="
M255.037567,838.015259 
	C268.127686,822.563904 280.996399,807.390442 294.687439,791.247314 
	C277.020935,791.247314 260.763641,791.247314 244.291641,791.247314 
	C244.291641,787.152710 244.291641,783.528748 244.291641,779.523926 
	C266.594055,779.523926 288.952820,779.523926 311.661102,779.523926 
	C312.177979,785.866089 312.382843,791.375244 307.408447,796.918335 
	C292.735107,813.269409 278.819458,830.300537 264.606293,847.064636 
	C263.900055,847.897705 263.184418,848.722717 261.942566,850.169678 
	C279.428131,850.169678 295.987823,850.169678 312.945801,850.169678 
	C312.945801,854.361389 312.945801,858.221680 312.945801,862.366089 
	C290.110260,862.366089 267.367249,862.366089 244.598175,862.366089 
	C242.790421,855.036560 244.195465,848.933777 249.914520,843.951416 
	C251.777603,842.328430 253.194946,840.193787 255.037567,838.015259 
z"/>
<path fill="#F7F7F7" opacity="1.000000" stroke="none" 
	d="
M549.073364,789.172729 
	C544.929138,790.111023 541.076416,790.607178 537.638672,792.075134 
	C533.575012,793.810425 532.087524,797.584961 532.214111,801.939941 
	C532.337036,806.171570 534.829041,808.962402 538.502808,810.080261 
	C544.837036,812.007812 551.367432,813.286133 557.802429,814.889343 
	C561.507324,815.812378 565.240845,816.671936 568.866882,817.850769 
	C578.345337,820.932190 583.935303,827.240112 584.588623,837.455994 
	C585.198608,846.995789 580.124756,855.862061 571.034790,859.974304 
	C559.815674,865.049744 548.002686,865.415466 536.414124,861.851929 
	C531.364197,860.299133 526.687927,856.983948 522.390503,853.742065 
	C519.921875,851.879761 518.551514,848.561646 516.447693,845.557617 
	C520.549194,843.560120 523.949158,841.904236 527.636536,840.108459 
	C534.895630,852.029785 546.043579,854.241577 558.736450,851.840027 
	C561.429260,851.330627 564.161743,850.085205 566.437500,848.535156 
	C570.015076,846.098511 571.341431,842.300171 570.772644,838.018921 
	C570.159180,833.401428 567.223938,830.341675 563.002136,829.132874 
	C555.984802,827.123535 548.788208,825.747864 541.698425,823.979858 
	C538.644653,823.218384 535.604858,822.310120 532.670166,821.179199 
	C524.329102,817.964905 519.220459,812.150024 518.773438,802.921509 
	C518.315369,793.463684 522.385620,786.218628 530.771912,782.180176 
	C543.950867,775.833801 557.543091,775.921753 570.812500,782.050964 
	C576.609131,784.728394 580.860901,789.147644 581.345520,796.663574 
	C577.739075,797.496887 574.102844,798.337158 570.266602,799.223572 
	C566.006958,790.210266 557.917786,789.386353 549.073364,789.172729 
z"/>
<path fill="#F7F7F7" opacity="1.000000" stroke="none" 
	d="
M667.889404,838.119324 
	C667.876465,822.181824 667.876465,806.703125 667.876465,790.540649 
	C661.141602,790.540649 654.609497,790.540649 647.848633,790.540649 
	C647.848633,786.447693 647.848633,783.036682 647.848633,779.139404 
	C654.435913,779.139404 660.855713,779.139404 667.732666,779.139404 
	C667.732666,771.754089 667.732666,764.840393 667.732666,757.661743 
	C672.432190,757.661743 676.660095,757.661743 681.428467,757.661743 
	C681.428467,764.732788 681.428467,771.645142 681.428467,779.082520 
	C690.027222,779.082520 698.104431,779.082520 706.497131,779.082520 
	C706.497131,783.004761 706.497131,786.396606 706.497131,790.292725 
	C698.204041,790.292725 690.130493,790.292725 681.408875,790.292725 
	C681.408875,798.394470 681.409790,806.004883 681.408569,813.615356 
	C681.407349,820.940247 681.363220,828.265381 681.410522,835.589966 
	C681.495056,848.683777 686.930908,853.213745 700.024780,851.180908 
	C701.783813,850.907776 703.546204,850.655945 705.756592,850.327454 
	C705.981384,854.184265 706.191162,857.784668 706.398071,861.335327 
	C681.974365,868.035156 667.422302,856.652954 667.889404,838.119324 
z"/>
<path fill="#F8F8F8" opacity="1.000000" stroke="none" 
	d="
M260.671417,527.386108 
	C257.842743,505.297913 258.582825,483.822113 264.081879,462.614166 
	C264.663513,460.371002 265.430298,458.156464 266.323792,456.017426 
	C268.407837,451.028259 272.009186,448.776733 277.641510,448.931000 
	C283.140656,449.081696 286.959778,450.864868 288.269409,455.119415 
	C286.307648,458.696899 284.117554,461.316895 283.354401,464.301727 
	C277.684784,486.477661 276.322144,508.912415 280.190979,531.558838 
	C280.469238,533.187805 280.909393,534.824402 281.539154,536.348022 
	C282.157074,537.843018 283.113190,539.198181 283.929138,540.629272 
	C280.988983,546.736450 275.448822,545.599854 270.433105,545.149170 
	C266.087097,544.758728 263.900513,541.502258 262.887329,537.526306 
	C262.069366,534.316406 261.460693,531.053101 260.671417,527.386108 
z"/>
<path fill="#F7F7F7" opacity="1.000000" stroke="none" 
	d="
M370.494751,536.047241 
	C372.924713,542.375366 372.121796,546.129822 368.138672,548.136719 
	C363.246216,550.601807 356.659790,548.508118 354.249512,542.893311 
	C352.379852,538.538025 351.205566,533.714539 350.657623,528.990662 
	C348.166321,507.513397 348.745422,486.129028 353.841034,465.015167 
	C354.456757,462.463959 355.511383,459.961670 356.721710,457.622559 
	C359.491852,452.268982 364.501648,453.544617 369.084625,453.805756 
	C373.156311,454.037781 374.577881,457.130280 375.668915,460.353180 
	C375.997437,461.323547 375.941071,462.588806 375.629395,463.583740 
	C373.959869,468.913269 371.393280,474.079865 370.533173,479.523407 
	C367.584381,498.185822 366.905823,516.941650 370.494751,536.047241 
z"/>
<path fill="#F8F8F8" opacity="1.000000" stroke="none" 
	d="
M376.009155,473.153381 
	C377.452240,468.373230 378.631470,464.460938 384.917206,464.786163 
	C390.394836,465.069641 392.911926,467.611816 393.687073,472.357971 
	C394.701935,478.572205 395.283813,484.857178 396.077148,491.317108 
	C388.243073,493.823120 389.684174,500.338196 389.523132,505.837433 
	C389.363373,511.291473 390.436249,512.421509 395.445953,514.658630 
	C393.943573,520.897339 392.737976,527.411133 390.756683,533.679749 
	C389.001678,539.232422 386.362701,540.235657 379.826141,539.655273 
	C374.648254,539.195496 374.548828,534.941406 374.105927,531.592102 
	C371.537262,512.167603 371.988037,492.792633 376.009155,473.153381 
z"/>
<path fill="#F6F5F6" opacity="1.000000" stroke="none" 
	d="
M257.013458,474.333862 
	C253.848633,494.090424 253.771545,513.423706 256.849396,532.754517 
	C246.770935,534.381958 243.631592,532.435791 241.868332,522.769226 
	C238.633545,505.035492 239.566940,487.343689 243.474899,469.839294 
	C245.759567,459.605957 249.195236,457.704163 260.194214,459.536652 
	C259.149872,464.328644 258.106842,469.114594 257.013458,474.333862 
z"/>
<path fill="#CCCCCC" opacity="1.000000" stroke="none" 
	d="
M981.000122,924.287598 
	C990.322083,924.294861 999.145752,924.219421 1007.964111,924.400940 
	C1009.221375,924.426819 1010.453064,925.697205 1011.696655,926.391479 
	C1010.409363,927.178284 1009.127136,928.640564 1007.833984,928.650208 
	C988.859619,928.792664 969.883362,928.787292 950.908997,928.639343 
	C949.565430,928.628845 948.232605,927.230835 946.894775,926.477966 
	C948.275879,925.762512 949.645325,924.454407 951.040039,924.426880 
	C960.857117,924.232605 970.679443,924.302002 981.000122,924.287598 
z"/>
<path fill="#CCCCCC" opacity="1.000000" stroke="none" 
	d="
M244.688690,924.550476 
	C265.069183,924.322998 285.050842,924.265198 305.031311,924.393921 
	C306.376953,924.402527 307.713531,925.819214 309.054321,926.581055 
	C307.699707,927.302673 306.350159,928.641968 304.989807,928.653015 
	C285.841003,928.808350 266.690399,928.737183 247.540970,928.846313 
	C244.364716,928.864380 243.151672,927.899109 244.688690,924.550476 
z"/>
<path fill="#D7D7D7" opacity="1.000000" stroke="none" 
	d="
M897.048767,925.578369 
	C896.443420,927.979553 896.198120,930.743530 895.634827,933.441162 
	C895.426880,934.437256 894.470215,935.277100 893.854980,936.188171 
	C893.341919,935.305603 892.416931,934.437622 892.385010,933.538025 
	C892.220276,928.889832 892.212646,924.231873 892.327026,919.581665 
	C892.350708,918.619019 893.124817,917.674866 893.553040,916.722168 
	C894.611755,917.279724 896.120972,917.566284 896.648621,918.443298 
	C898.589111,921.668823 900.204102,925.090210 902.350830,929.226562 
	C904.205444,925.216797 905.579651,921.909363 907.277832,918.777588 
	C907.792664,917.828247 909.203308,917.364746 910.203674,916.678711 
	C910.763916,917.684998 911.768555,918.674377 911.807434,919.700378 
	C911.977234,924.180908 911.965942,928.676086 911.783936,933.156372 
	C911.741516,934.200928 910.773499,935.208008 910.231323,936.232361 
	C909.635864,935.114014 908.665222,934.040588 908.524841,932.867737 
	C908.251953,930.587402 908.444885,928.251404 907.553589,925.587708 
	C905.972900,928.326294 904.392212,931.064819 902.202576,934.858337 
	C900.318970,931.434265 898.800781,928.674561 897.048767,925.578369 
z"/>
<path fill="#DEDEDE" opacity="1.000000" stroke="none" 
	d="
M769.781982,934.869141 
	C768.210754,934.866699 766.063110,934.985352 765.245667,934.000122 
	C762.779724,931.028259 760.830811,927.627380 758.680359,924.393677 
	C758.228149,924.491455 757.775940,924.589172 757.323730,924.686890 
	C757.323730,927.552673 757.471130,930.430176 757.243652,933.277710 
	C757.164185,934.272095 756.160645,935.192749 755.579224,936.147095 
	C755.069702,935.293274 754.140564,934.449890 754.119019,933.583923 
	C753.983826,928.142639 754.050598,922.696289 754.050598,916.496948 
	C761.051575,918.038208 761.327148,925.018250 766.257019,928.849792 
	C766.448242,924.649170 766.619202,920.893433 766.791443,917.110352 
	C769.933716,917.660828 769.933716,917.660828 769.781982,934.869141 
z"/>
<path fill="#DADADA" opacity="1.000000" stroke="none" 
	d="
M527.445435,933.012817 
	C523.326355,938.243591 518.118835,935.526062 513.205750,936.233032 
	C513.205750,929.615845 513.205750,923.520630 513.205750,916.755249 
	C515.908813,916.755249 518.500793,916.650269 521.081238,916.778259 
	C525.685913,917.006653 527.288147,919.540283 526.791260,924.058838 
	C526.482971,926.862427 527.322815,929.792175 527.445435,933.012817 
M516.466675,924.054871 
	C518.210449,924.250610 519.968689,924.657471 521.690979,924.539307 
	C522.390259,924.491272 523.435425,923.365540 523.550476,922.612244 
	C523.669373,921.833252 523.034546,920.374390 522.405029,920.158447 
	C520.888428,919.638123 519.048706,919.227722 517.608093,919.662842 
	C516.868774,919.886108 516.705688,922.017029 516.466675,924.054871 
M522.268005,927.837891 
	C520.385742,927.837891 518.503418,927.837891 516.429138,927.837891 
	C516.429138,929.755981 516.429138,931.302368 516.429138,933.741699 
	C519.199463,933.125366 521.587891,932.593994 523.976379,932.062622 
	C523.688843,930.777710 523.401245,929.492798 522.268005,927.837891 
z"/>
<path fill="#DADADA" opacity="1.000000" stroke="none" 
	d="
M617.491882,916.670715 
	C624.423889,917.814575 627.326050,921.698608 626.457336,928.130493 
	C625.556763,934.798401 621.056580,937.035706 610.682861,935.756104 
	C610.682861,929.626709 610.682861,923.447083 610.682861,916.663208 
	C612.877075,916.663208 614.980408,916.663208 617.491882,916.670715 
M618.854248,933.000061 
	C623.678284,931.349304 623.811340,927.443054 622.790222,923.605408 
	C621.616638,919.194641 617.834534,919.542297 614.021973,919.830017 
	C614.021973,924.258484 614.021973,928.504578 614.021973,933.120300 
	C615.418213,933.120300 616.693970,933.120300 618.854248,933.000061 
z"/>
<path fill="#F4F4F4" opacity="1.000000" stroke="none" 
	d="
M396.087219,509.929260 
	C395.144897,507.910156 394.164001,506.078308 394.075073,504.204102 
	C393.707062,496.449005 399.325592,492.637421 405.946320,496.654144 
	C407.873779,497.823456 408.926605,502.136444 408.590790,504.781219 
	C408.334595,506.798859 405.539612,509.091156 403.342102,510.084595 
	C401.435455,510.946533 398.782135,510.156799 396.087219,509.929260 
z"/>
<path fill="#D7D7D7" opacity="1.000000" stroke="none" 
	d="
M366.232117,930.628113 
	C366.231018,925.871765 366.231018,921.568176 366.231018,916.635742 
	C371.288300,917.478271 377.100220,914.327454 380.060638,919.981323 
	C381.236359,922.226685 379.457947,926.018799 379.024506,929.106750 
	C378.478058,929.094788 377.931641,929.082825 377.385193,929.070862 
	C378.645050,931.172424 379.904907,933.274048 381.187714,935.413940 
	C377.980621,936.022827 378.129639,935.915344 375.741638,932.604370 
	C374.542877,930.942139 372.687927,929.753174 371.229370,928.439758 
	C369.759094,931.817627 368.813843,933.989319 367.868561,936.161011 
	C367.323456,934.467651 366.778320,932.774231 366.232117,930.628113 
M369.857513,925.366821 
	C370.602997,925.596741 371.345184,926.009399 372.094635,926.023071 
	C374.597321,926.068787 377.720825,926.326233 377.548950,922.708130 
	C377.390991,919.382385 374.478058,919.289246 371.852661,919.480957 
	C371.223816,919.526978 370.606384,919.728821 369.726227,919.912781 
	C369.726227,921.526672 369.726227,923.001160 369.857513,925.366821 
z"/>
<path fill="#DEDEDE" opacity="1.000000" stroke="none" 
	d="
M700.090576,936.168030 
	C699.131775,929.910034 698.544312,923.664062 697.877319,916.572327 
	C703.523315,917.306580 709.238159,914.462463 712.085510,920.133972 
	C713.222290,922.398315 711.410156,926.143250 710.940430,929.214172 
	C710.420166,929.179626 709.899963,929.145020 709.379761,929.110474 
	C710.617737,931.200500 711.855713,933.290588 713.135315,935.450867 
	C709.874023,935.915283 710.018127,935.818115 707.729980,932.424072 
	C706.642029,930.810120 704.884949,929.647217 703.126709,927.993958 
	C701.976135,931.528442 701.219055,933.854248 700.090576,936.168030 
M707.705322,925.878723 
	C708.242065,924.369507 709.460083,921.683167 709.207886,921.537170 
	C707.180237,920.363708 704.875427,919.669128 702.160889,918.640869 
	C702.160889,921.876282 702.160889,923.892822 702.160889,926.057251 
	C703.962585,926.057251 705.422729,926.057251 707.705322,925.878723 
z"/>
<path fill="#E6E6E6" opacity="1.000000" stroke="none" 
	d="
M874.062378,916.822205 
	C880.848816,919.502197 881.392151,923.383667 875.935303,929.192505 
	C877.164612,931.188599 878.441956,933.262756 879.719299,935.336853 
	C879.391479,935.713562 879.063599,936.090210 878.735718,936.466919 
	C877.362549,935.312866 875.781189,934.329041 874.665955,932.964233 
	C873.061584,931.000732 872.337097,927.851624 868.371216,929.585205 
	C868.249023,931.557800 868.118713,933.660706 867.988464,935.763672 
	C867.622009,935.994812 867.255554,936.226013 866.889099,936.457153 
	C866.232239,935.500305 865.040283,934.561462 865.007263,933.583557 
	C864.822876,928.113586 864.918518,922.634216 864.918518,916.783447 
	C868.057007,916.783447 870.860229,916.783447 874.062378,916.822205 
M875.179260,920.470642 
	C872.922180,920.061035 870.665100,919.651428 868.366882,919.234314 
	C868.366882,922.007935 868.366882,923.908081 868.366882,925.781128 
	C875.628296,926.341797 876.076111,926.044312 875.179260,920.470642 
z"/>
<path fill="#DEDEDE" opacity="1.000000" stroke="none" 
	d="
M453.769653,924.231628 
	C455.809113,922.701416 457.652496,920.696472 459.686218,918.907898 
	C460.882507,917.855713 462.381012,917.147095 463.743561,916.283936 
	C464.055359,916.642029 464.367157,917.000122 464.678955,917.358215 
	C463.645264,918.710449 462.618561,920.067993 461.575958,921.413330 
	C460.571625,922.709412 459.550873,923.992859 458.427521,925.421509 
	C460.735748,928.833313 462.955353,932.114136 465.864410,936.414062 
	C459.542755,936.419250 459.506195,930.277710 455.266754,927.814026 
	C454.362122,930.552246 453.505402,933.145508 452.250824,936.943054 
	C451.368927,935.441101 450.311951,934.455078 450.268585,933.426331 
	C450.079926,928.952087 450.064758,924.459717 450.272156,919.987183 
	C450.323456,918.881897 451.446259,917.826294 452.076538,916.747864 
	C452.554474,917.787598 453.230255,918.785889 453.458710,919.877808 
	C453.726685,921.158691 453.605774,922.520874 453.769653,924.231628 
z"/>
<path fill="#DADADA" opacity="1.000000" stroke="none" 
	d="
M555.911499,920.445618 
	C555.907715,923.706909 556.037231,926.537964 555.869019,929.351135 
	C555.594177,933.946228 553.036316,936.354614 548.576843,936.489990 
	C543.765137,936.636108 540.842651,934.332825 540.471375,929.672119 
	C540.195251,926.205750 540.269348,922.698181 540.426819,919.219849 
	C540.466614,918.340637 541.421753,917.502808 541.956299,916.645996 
	C542.593018,917.564880 543.703735,918.446655 543.779236,919.409546 
	C544.025269,922.546509 543.430786,925.813782 544.086975,928.829163 
	C544.456604,930.527893 546.648010,931.830200 548.018738,933.311096 
	C549.482056,931.866882 551.788330,930.635254 552.218262,928.930359 
	C552.927429,926.118408 552.262146,922.986938 552.511292,920.018311 
	C552.611023,918.830078 553.599060,917.716309 554.182739,916.568604 
	C554.758789,917.714844 555.334900,918.861084 555.911499,920.445618 
z"/>
<path fill="#DADADA" opacity="1.000000" stroke="none" 
	d="
M789.149292,936.442810 
	C787.492188,936.108093 785.983276,936.115112 785.002136,935.399109 
	C784.026062,934.686768 783.580139,933.248047 782.901794,932.127808 
	C784.000122,932.314209 785.097839,932.504639 786.197021,932.685852 
	C787.487000,932.898499 788.865784,933.481079 790.044922,933.207886 
	C791.292297,932.918945 792.350220,931.811890 793.490845,931.062195 
	C792.683472,930.124878 792.018860,928.973206 791.027100,928.312927 
	C790.107239,927.700562 788.831970,927.632324 787.723511,927.290955 
	C784.640442,926.341370 781.509705,924.592346 782.991028,921.135010 
	C783.908386,918.993774 787.094849,917.523987 789.569580,916.480347 
	C790.767456,915.975098 792.787231,916.918396 794.209534,917.646179 
	C794.976685,918.038696 795.268616,919.359985 795.774963,920.262207 
	C794.822266,920.296021 793.849976,920.465149 792.921631,920.330933 
	C791.645386,920.146240 790.329834,919.327271 789.166321,919.535461 
	C788.105042,919.725342 787.223816,920.921997 786.263245,921.674866 
	C786.960999,922.470886 787.559387,923.400146 788.389160,924.019287 
	C789.015747,924.487000 789.928955,924.594299 790.730652,924.799500 
	C794.150391,925.674927 797.341125,927.013000 796.849976,931.277527 
	C796.373169,935.417419 793.089722,936.305420 789.149292,936.442810 
z"/>
<path fill="#E6E6E6" opacity="1.000000" stroke="none" 
	d="
M852.085327,929.138550 
	C849.583008,935.151001 845.860535,937.377380 840.950134,936.141541 
	C836.663330,935.062622 834.017700,930.925842 834.303894,925.749268 
	C834.589539,920.581970 837.652832,917.075745 842.356384,916.532410 
	C848.723267,915.796997 852.351318,920.333496 852.085327,929.138550 
M843.454163,933.515869 
	C848.744568,931.938049 850.878296,925.752869 847.604919,921.483887 
	C845.386292,918.590515 841.296326,918.560791 839.092957,921.422058 
	C835.970764,925.476318 837.696472,931.417419 843.454163,933.515869 
z"/>
<path fill="#D7D7D7" opacity="1.000000" stroke="none" 
	d="
M725.051758,935.892456 
	C726.803467,930.056702 728.719604,924.407227 730.822510,918.828125 
	C731.157471,917.939392 732.461426,916.682495 733.087097,916.801941 
	C734.127380,917.000671 735.431152,917.989441 735.838989,918.971436 
	C738.122375,924.469543 740.170471,930.065308 742.540771,936.259888 
	C741.001038,935.976379 739.788086,936.128540 739.310791,935.607178 
	C734.455322,930.304443 732.398682,930.304871 727.570618,935.648743 
	C727.151978,936.112061 726.058228,935.965393 725.051758,935.892456 
M735.161743,925.567322 
	C734.579163,924.398438 733.996643,923.229553 733.085754,921.401794 
	C732.064758,924.330444 731.343628,926.398987 730.622498,928.467529 
	C732.351562,927.540527 736.396790,931.710144 735.161743,925.567322 
z"/>
<path fill="#DEDEDE" opacity="1.000000" stroke="none" 
	d="
M401.839661,916.781738 
	C405.048553,922.972351 407.920807,929.146423 410.793091,935.320435 
	C410.461426,935.562317 410.129791,935.804199 409.798157,936.046082 
	C407.075317,934.633789 404.352112,932.114197 401.629700,932.114990 
	C398.806183,932.115845 395.983429,934.557861 392.263519,936.368774 
	C394.856140,929.727966 397.131165,923.791931 399.539032,917.910278 
	C399.766815,917.353821 400.828491,917.138733 401.839661,916.781738 
M401.512512,921.356995 
	C400.548248,923.700500 399.583954,926.043945 398.473694,928.742249 
	C400.758240,928.742249 402.315186,928.742249 404.307159,928.742249 
	C403.442749,926.232666 402.703064,924.085022 401.512512,921.356995 
z"/>
<path fill="#DEDEDE" opacity="1.000000" stroke="none" 
	d="
M429.257812,916.389648 
	C432.336639,917.393311 435.036102,918.439880 437.735596,919.486450 
	C437.482727,920.177307 437.229858,920.868164 436.977020,921.559021 
	C435.907654,921.228699 434.741089,921.071411 433.787292,920.535461 
	C431.000488,918.969238 428.289368,918.730469 426.223633,921.410095 
	C423.716461,924.662415 423.574615,928.675171 426.356537,931.393250 
	C427.779083,932.783264 431.269012,932.139099 433.831482,932.241455 
	C434.900085,932.284119 435.986694,931.876770 437.065094,931.674011 
	C436.417847,932.814697 436.041046,934.325684 435.075653,935.030823 
	C431.271606,937.809021 425.424042,936.531250 422.826233,932.577332 
	C419.695221,927.811829 420.790131,920.818970 425.227051,917.917786 
	C426.306427,917.211975 427.654175,916.916626 429.257812,916.389648 
z"/>
<path fill="#E6E6E6" opacity="1.000000" stroke="none" 
	d="
M815.178345,916.761108 
	C818.102234,916.851685 820.586670,916.940674 823.071167,917.029724 
	C823.052246,917.754700 823.033325,918.479675 823.014404,919.204712 
	C819.856384,919.358643 816.698425,919.512512 813.253784,919.680420 
	C813.253784,921.343323 813.253784,922.930359 813.253784,924.595032 
	C816.126587,924.877075 819.006104,925.159790 821.885620,925.442505 
	C821.881348,926.062866 821.877014,926.683228 821.872681,927.303650 
	C819.128479,927.559753 816.384277,927.815857 812.930481,928.138184 
	C812.930481,929.850464 813.095703,931.797363 812.856506,933.693176 
	C812.747192,934.559021 811.840759,935.324341 811.295898,936.135254 
	C810.765076,935.308411 809.796021,934.492737 809.774597,933.652893 
	C809.635986,928.200195 809.703491,922.742249 809.703491,916.759583 
	C811.559692,916.759583 813.149353,916.759583 815.178345,916.761108 
z"/>
<path fill="#E6E6E6" opacity="1.000000" stroke="none" 
	d="
M228.161560,502.025940 
	C224.225204,498.656128 224.234940,494.783905 226.207718,490.953430 
	C228.393784,486.708801 232.353912,488.250153 236.224152,488.417358 
	C235.966888,493.076141 235.722549,497.501007 235.461578,502.226929 
	C233.006287,502.226929 230.755493,502.226929 228.161560,502.025940 
z"/>
<path fill="#E6E6E6" opacity="1.000000" stroke="none" 
	d="
M685.964600,917.425903 
	C684.484985,918.667542 682.839172,919.577759 680.363586,920.946838 
	C680.363586,925.262939 680.363586,930.647156 680.363586,936.031433 
	C679.729980,936.199707 679.096436,936.367981 678.462830,936.536255 
	C677.974548,935.182495 677.214661,933.858704 677.061035,932.468018 
	C676.824829,930.328369 677.005920,928.142822 677.007812,925.976746 
	C677.009460,924.000916 677.008179,922.025146 677.008179,920.100281 
	C674.740723,919.661865 672.844238,919.295166 670.947754,918.928467 
	C670.976074,918.317200 671.004456,917.705872 671.032776,917.094543 
	C675.954651,917.094543 680.876465,917.094543 685.964600,917.425903 
z"/>
<path fill="#DEDEDE" opacity="1.000000" stroke="none" 
	d="
M348.000427,927.926514 
	C347.991577,930.218079 348.160950,932.065186 347.895172,933.847412 
	C347.768616,934.696106 346.813995,935.421326 346.234436,936.202454 
	C345.732269,935.352051 344.824829,934.515198 344.796051,933.649048 
	C344.648773,929.214172 344.727966,924.771729 344.727966,920.077271 
	C342.477661,919.648743 340.519775,919.275940 338.191132,918.832458 
	C341.262909,916.205994 350.258453,916.029602 354.830688,918.773682 
	C352.083557,919.312439 350.198608,919.682129 348.000031,920.113342 
	C348.000031,922.526550 348.000031,924.990906 348.000427,927.926514 
z"/>
<path fill="#E6E6E6" opacity="1.000000" stroke="none" 
	d="
M585.888916,918.756714 
	C586.520630,917.790466 587.147339,917.244812 587.774048,916.699158 
	C588.238831,917.610596 589.075806,918.510193 589.105164,919.435425 
	C589.245972,923.874878 589.168396,928.321289 589.168396,932.952332 
	C592.640930,933.180969 595.775757,933.387451 598.910645,933.593933 
	C598.926453,934.306885 598.942322,935.019897 598.958130,935.732849 
	C594.830750,935.927063 590.703369,936.121216 585.883850,936.347961 
	C585.883850,930.324158 585.883850,924.750671 585.888916,918.756714 
z"/>
<path fill="#CCCCCC" opacity="1.000000" stroke="none" 
	d="
M570.100159,916.695068 
	C571.044739,916.778442 572.124695,917.009766 572.132629,917.273438 
	C572.311157,923.191406 572.408997,929.113098 572.372131,935.033203 
	C572.369568,935.432617 571.126953,936.199707 570.564758,936.114258 
	C570.008301,936.029663 569.156250,935.073486 569.166199,934.512695 
	C569.271667,928.626343 569.524231,922.742615 570.100159,916.695068 
z"/>
<path fill="#E6E6E6" opacity="1.000000" stroke="none" 
	d="
M345.221710,497.267273 
	C345.200836,501.084534 345.200836,504.511322 345.200836,507.938080 
	C344.610931,508.152313 344.020996,508.366577 343.431091,508.580811 
	C342.045258,506.072998 339.790009,503.662323 339.496185,501.032501 
	C339.137909,497.825500 341.007935,494.852600 344.912750,493.097870 
	C345.055756,494.736145 345.149170,495.806458 345.221710,497.267273 
z"/>
<path fill="#1A1A1A" opacity="1.000000" stroke="none" 
	d="
M308.694519,481.977081 
	C306.312958,486.490723 303.651489,490.985596 300.990051,495.480469 
	C300.511871,495.189789 300.033691,494.899109 299.555511,494.608429 
	C301.972107,490.643951 304.388672,486.679474 306.769012,482.317169 
	C307.293396,481.932343 307.854004,481.945312 308.694519,481.977081 
z"/>
<path fill="#FBFBFB" opacity="1.000000" stroke="none" 
	d="
M617.189819,430.787231 
	C617.321533,431.057709 617.486389,431.300995 617.651245,431.544312 
	C617.471985,431.398987 617.292725,431.253693 617.197205,430.902710 
	C617.280945,430.697021 617.222961,430.760071 617.189819,430.787231 
z"/>
<path fill="#030303" opacity="1.000000" stroke="none" 
	d="
M804.945129,634.223267 
	C805.502075,637.363342 805.987976,640.094604 806.492371,642.929382 
	C817.512207,638.505737 828.514893,634.088989 840.730896,629.185181 
	C832.084229,645.158508 823.248352,659.425171 809.531189,669.982300 
	C805.721497,672.914307 801.469482,673.110046 797.390991,670.502869 
	C777.509827,657.793884 760.309387,642.302063 747.977356,621.941833 
	C747.110168,620.510071 747.200378,617.731750 748.003174,616.177795 
	C753.824585,604.909546 762.534241,596.457092 773.751587,590.481750 
	C776.593384,588.967957 778.427551,589.415161 780.699402,591.519531 
	C791.483032,601.508240 798.627014,613.688110 803.004822,627.604248 
	C803.653503,629.666260 804.252258,631.743958 804.945129,634.223267 
z"/>
<path fill="#030303" opacity="1.000000" stroke="none" 
	d="
M422.741852,636.297363 
	C420.667328,630.142151 418.711975,624.367249 416.449524,617.685242 
	C422.481171,620.874390 427.794403,623.683655 432.675568,626.264526 
	C435.947083,605.816406 446.120209,590.178223 463.499115,579.247620 
	C464.490723,578.623962 466.497711,578.576233 467.499847,579.165527 
	C479.933563,586.477173 488.184448,597.248840 492.760559,610.822693 
	C493.160889,612.010132 492.378448,614.035461 491.491455,615.152100 
	C477.323822,632.987305 459.053650,645.539307 438.789795,655.364807 
	C432.595673,658.368164 430.835815,657.561157 428.078003,651.204712 
	C426.034454,646.494507 424.578674,641.529297 422.741852,636.297363 
z"/>
<path fill="#000000" opacity="1.000000" stroke="none" 
	d="
M741.637817,576.556702 
	C742.037415,575.727661 742.671265,575.168945 743.305115,574.610291 
	C743.487671,574.746460 743.670227,574.882568 743.852722,575.018738 
	C743.529297,575.666626 743.205872,576.314453 742.621094,577.156311 
	C742.197205,577.175903 742.034607,577.001465 741.637817,576.556702 
z"/>
<path fill="#000000" opacity="1.000000" stroke="none" 
	d="
M698.141724,358.669342 
	C698.647827,358.354645 699.153870,358.039978 699.924194,357.542542 
	C700.400024,357.537720 700.611572,357.715698 701.125366,358.177734 
	C700.490601,358.850952 699.553650,359.240112 698.392822,359.192139 
	C698.168945,358.754974 698.141724,358.669342 698.141724,358.669342 
z"/>
<path fill="#000000" opacity="1.000000" stroke="none" 
	d="
M579.841003,346.834106 
	C580.299194,346.493378 580.980652,346.395538 581.662109,346.297699 
	C581.453064,346.621277 581.244080,346.944855 580.773987,347.414673 
	C580.363342,347.399658 580.213806,347.238342 579.841003,346.834106 
z"/>
<path fill="#000000" opacity="1.000000" stroke="none" 
	d="
M500.499786,573.333252 
	C500.068726,573.077637 499.871948,572.663147 499.675171,572.248657 
	C500.084229,572.223816 500.493256,572.198914 501.038910,572.496948 
	C501.028381,572.937988 500.881226,573.056152 500.499786,573.333252 
z"/>
<path fill="#000000" opacity="1.000000" stroke="none" 
	d="
M698.122925,358.732910 
	C698.385315,358.990234 698.693726,359.269623 699.002075,359.549011 
	C698.803772,359.452240 698.605469,359.355469 698.274414,358.964020 
	C698.141724,358.669342 698.168945,358.754974 698.122925,358.732910 
z"/>
<path fill="#080808" opacity="1.000000" stroke="none" 
	d="
M976.539001,519.755615 
	C970.981995,514.496460 970.722900,508.085602 975.551270,503.463654 
	C978.771240,500.381317 984.008606,499.640717 987.481079,502.009003 
	C991.143799,504.507050 992.471252,508.136017 991.500427,512.422119 
	C990.365601,517.431824 985.970398,521.035156 981.192444,520.922913 
	C979.746948,520.888977 978.314575,520.291199 976.539001,519.755615 
z"/>
<path fill="#080808" opacity="1.000000" stroke="none" 
	d="
M803.999878,813.737915 
	C796.027893,813.737854 788.555969,813.737854 781.114746,813.737854 
	C780.168823,800.534424 790.617493,789.643921 804.130615,789.359863 
	C818.017822,789.067932 828.014709,799.118713 827.788818,813.738037 
	C820.041443,813.738037 812.270630,813.738037 803.999878,813.737915 
z"/>
<path fill="#1A1A1A" opacity="1.000000" stroke="none" 
	d="
M516.374451,923.670349 
	C516.705688,922.017029 516.868774,919.886108 517.608093,919.662842 
	C519.048706,919.227722 520.888428,919.638123 522.405029,920.158447 
	C523.034546,920.374390 523.669373,921.833252 523.550476,922.612244 
	C523.435425,923.365540 522.390259,924.491272 521.690979,924.539307 
	C519.968689,924.657471 518.210449,924.250610 516.374451,923.670349 
z"/>
<path fill="#1A1A1A" opacity="1.000000" stroke="none" 
	d="
M522.690796,928.022888 
	C523.401245,929.492798 523.688843,930.777710 523.976379,932.062622 
	C521.587891,932.593994 519.199463,933.125366 516.429138,933.741699 
	C516.429138,931.302368 516.429138,929.755981 516.429138,927.837891 
	C518.503418,927.837891 520.385742,927.837891 522.690796,928.022888 
z"/>
<path fill="#080808" opacity="1.000000" stroke="none" 
	d="
M618.411987,933.060181 
	C616.693970,933.120300 615.418213,933.120300 614.021973,933.120300 
	C614.021973,928.504578 614.021973,924.258484 614.021973,919.830017 
	C617.834534,919.542297 621.616638,919.194641 622.790222,923.605408 
	C623.811340,927.443054 623.678284,931.349304 618.411987,933.060181 
z"/>
<path fill="#1A1A1A" opacity="1.000000" stroke="none" 
	d="
M369.791870,924.921204 
	C369.726227,923.001160 369.726227,921.526672 369.726227,919.912781 
	C370.606384,919.728821 371.223816,919.526978 371.852661,919.480957 
	C374.478058,919.289246 377.390991,919.382385 377.548950,922.708130 
	C377.720825,926.326233 374.597321,926.068787 372.094635,926.023071 
	C371.345184,926.009399 370.602997,925.596741 369.791870,924.921204 
z"/>
<path fill="#1A1A1A" opacity="1.000000" stroke="none" 
	d="
M707.294128,925.968018 
	C705.422729,926.057251 703.962585,926.057251 702.160889,926.057251 
	C702.160889,923.892822 702.160889,921.876282 702.160889,918.640869 
	C704.875427,919.669128 707.180237,920.363708 709.207886,921.537170 
	C709.460083,921.683167 708.242065,924.369507 707.294128,925.968018 
z"/>
<path fill="#1A1A1A" opacity="1.000000" stroke="none" 
	d="
M875.453735,920.781128 
	C876.076111,926.044312 875.628296,926.341797 868.366882,925.781128 
	C868.366882,923.908081 868.366882,922.007935 868.366882,919.234314 
	C870.665100,919.651428 872.922180,920.061035 875.453735,920.781128 
z"/>
<path fill="#080808" opacity="1.000000" stroke="none" 
	d="
M843.028320,933.510132 
	C837.696472,931.417419 835.970764,925.476318 839.092957,921.422058 
	C841.296326,918.560791 845.386292,918.590515 847.604919,921.483887 
	C850.878296,925.752869 848.744568,931.938049 843.028320,933.510132 
z"/>
<path fill="#1A1A1A" opacity="1.000000" stroke="none" 
	d="
M735.297607,925.942444 
	C736.396790,931.710144 732.351562,927.540527 730.622498,928.467529 
	C731.343628,926.398987 732.064758,924.330444 733.085754,921.401794 
	C733.996643,923.229553 734.579163,924.398438 735.297607,925.942444 
z"/>
<path fill="#1A1A1A" opacity="1.000000" stroke="none" 
	d="
M401.737915,921.647217 
	C402.703064,924.085022 403.442749,926.232666 404.307159,928.742249 
	C402.315186,928.742249 400.758240,928.742249 398.473694,928.742249 
	C399.583954,926.043945 400.548248,923.700500 401.737915,921.647217 
z"/>
</svg>